<svg width="340" height="199" viewBox="0 0 340 199" fill="none" xmlns="http://www.w3.org/2000/svg">
<rect x="0.963867" y="0.531738" width="339" height="198" rx="10" fill="url(#paint0_linear_37_379)"/>
<mask id="mask0_37_379" style="mask-type:alpha" maskUnits="userSpaceOnUse" x="0" y="0" width="340" height="199">
<rect x="0.963867" y="0.531738" width="339" height="198" rx="10" fill="url(#paint1_linear_37_379)"/>
</mask>
<g mask="url(#mask0_37_379)">
<circle cx="30.5892" cy="89.0733" r="157.958" fill="white" fill-opacity="0.05"/>
</g>
<path d="M278.75 46.2677H272.668L276.472 22.9543H282.554L278.75 46.2677Z" fill="white"/>
<path d="M300.799 23.5243C299.599 23.0526 297.696 22.5317 295.344 22.5317C289.337 22.5317 285.107 25.7062 285.081 30.2446C285.032 33.5931 288.11 35.4529 290.412 36.5694C292.765 37.7102 293.565 38.4549 293.565 39.4718C293.541 41.0336 291.664 41.7536 289.913 41.7536C287.484 41.7536 286.183 41.3824 284.206 40.5135L283.405 40.141L282.554 45.3743C283.98 46.0184 286.608 46.59 289.337 46.6151C295.719 46.6151 299.874 43.4898 299.923 38.6533C299.947 35.9994 298.322 33.9659 294.818 32.3042C292.69 31.2375 291.388 30.5182 291.388 29.4268C291.413 28.4346 292.49 27.4183 294.891 27.4183C296.868 27.3685 298.321 27.8396 299.422 28.3109L299.972 28.5585L300.799 23.5243Z" fill="white"/>
<path d="M308.883 38.0086C309.384 36.6693 311.311 31.4857 311.311 31.4857C311.286 31.5355 311.811 30.1217 312.111 29.2537L312.537 31.2625C312.537 31.2625 313.688 36.843 313.938 38.0086C312.988 38.0086 310.084 38.0086 308.883 38.0086ZM316.391 22.9543H311.686C310.235 22.9543 309.133 23.3756 308.507 24.8887L299.473 46.2673H305.855C305.855 46.2673 306.905 43.3899 307.131 42.7702C307.831 42.7702 314.04 42.7702 314.94 42.7702C315.115 43.5887 315.666 46.2673 315.666 46.2673H321.298L316.391 22.9543Z" fill="white"/>
<path d="M267.588 22.9543L261.631 38.8518L260.98 35.6276C259.879 31.9073 256.425 27.8653 252.571 25.8555L258.027 46.2429H264.459L274.019 22.9543H267.588Z" fill="white"/>
<path d="M256.1 22.9541H246.314L246.214 23.4252C253.847 25.3598 258.903 30.0232 260.98 35.6283L258.853 24.9138C258.502 23.4248 257.426 23.0032 256.1 22.9541Z" fill="white"/>
<path fill-rule="evenodd" clip-rule="evenodd" d="M30.9639 22.1985H38.7971V31.4293L25.9639 31.4293V27.1985C25.9639 24.4371 28.2024 22.1985 30.9639 22.1985ZM25.9639 33.737L38.7971 33.737V40.66H25.9639V33.737ZM25.9639 42.9677V47.1985C25.9639 49.9599 28.2024 52.1985 30.9639 52.1985H38.7971V42.9677H25.9639ZM52.7972 52.1985H41.1305V22.1985H62.9639C65.7253 22.1985 67.9639 24.4371 67.9639 27.1985V31.4293L55.1305 31.4293L53.3806 31.4293L52.7972 31.4293V52.1985ZM55.1305 33.737L67.9639 33.737V40.66H55.1305V33.737ZM55.1305 42.9677V52.1985H62.9639C65.7253 52.1985 67.9639 49.9599 67.9639 47.1985V42.9677H55.1305Z" fill="#DFDEDE"/>
<path fill-rule="evenodd" clip-rule="evenodd" d="M30.9639 22.1985H38.7971V31.4293L25.9639 31.4293V27.1985C25.9639 24.4371 28.2024 22.1985 30.9639 22.1985ZM25.9639 33.737L38.7971 33.737V40.66H25.9639V33.737ZM25.9639 42.9677V47.1985C25.9639 49.9599 28.2024 52.1985 30.9639 52.1985H38.7971V42.9677H25.9639ZM52.7972 52.1985H41.1305V22.1985H62.9639C65.7253 22.1985 67.9639 24.4371 67.9639 27.1985V31.4293L55.1305 31.4293L53.3806 31.4293L52.7972 31.4293V52.1985ZM55.1305 33.737L67.9639 33.737V40.66H55.1305V33.737ZM55.1305 42.9677V52.1985H62.9639C65.7253 52.1985 67.9639 49.9599 67.9639 47.1985V42.9677H55.1305Z" fill="url(#paint2_linear_37_379)"/>
<path d="M26.3029 126.115C25.9829 126.115 25.6869 126.043 25.4149 125.899C25.1589 125.755 25.0309 125.539 25.0309 125.251V111.931L24.1909 112.987C24.0949 113.067 23.9989 113.131 23.9029 113.179C23.8229 113.211 23.7429 113.227 23.6629 113.227C23.4069 113.227 23.1989 113.123 23.0389 112.915C22.8789 112.691 22.7989 112.443 22.7989 112.171C22.7989 111.771 22.9669 111.451 23.3029 111.211L25.7989 108.811C25.9909 108.635 26.2069 108.547 26.4469 108.547C26.7189 108.547 26.9749 108.627 27.2149 108.787C27.4549 108.931 27.5749 109.131 27.5749 109.387V125.251C27.5749 125.539 27.4389 125.755 27.1669 125.899C26.9109 126.043 26.6229 126.115 26.3029 126.115ZM30.8533 126.115C30.6293 126.115 30.3813 126.043 30.1093 125.899C29.8533 125.739 29.7253 125.523 29.7253 125.251V122.923C29.7253 122.283 29.9173 121.691 30.3013 121.147C30.6853 120.587 31.1733 120.059 31.7653 119.563C32.3573 119.067 32.9893 118.587 33.6613 118.123C34.3333 117.643 34.9653 117.163 35.5573 116.683C36.1493 116.187 36.6373 115.675 37.0213 115.147C37.4053 114.603 37.5973 114.027 37.5973 113.419C37.5973 113.019 37.5013 112.627 37.3093 112.243C37.1333 111.859 36.8533 111.539 36.4693 111.283C36.0853 111.027 35.5893 110.899 34.9813 110.899C34.3093 110.899 33.7333 111.091 33.2533 111.475C32.7893 111.859 32.5573 112.459 32.5573 113.275C32.5573 113.515 32.4373 113.739 32.1973 113.947C31.9733 114.139 31.6533 114.235 31.2373 114.235C30.8853 114.235 30.6053 114.139 30.3973 113.947C30.1893 113.739 30.0853 113.363 30.0853 112.819C30.0853 111.971 30.3093 111.227 30.7573 110.587C31.2213 109.947 31.8213 109.451 32.5573 109.099C33.3093 108.747 34.1253 108.571 35.0053 108.571C35.9173 108.571 36.7653 108.771 37.5493 109.171C38.3333 109.571 38.9573 110.131 39.4213 110.851C39.9013 111.555 40.1413 112.387 40.1413 113.347C40.1413 114.211 39.9493 114.987 39.5653 115.675C39.1973 116.347 38.7173 116.963 38.1253 117.523C37.5333 118.083 36.9013 118.595 36.2293 119.059C35.5733 119.523 34.9493 119.963 34.3573 120.379C33.7813 120.795 33.3013 121.211 32.9173 121.627C32.5493 122.043 32.3653 122.475 32.3653 122.923V123.859H39.3973C39.6213 123.859 39.8133 123.971 39.9733 124.195C40.1493 124.403 40.2373 124.659 40.2373 124.963C40.2373 125.267 40.1493 125.539 39.9733 125.779C39.8133 126.003 39.6213 126.115 39.3973 126.115H30.8533ZM46.7447 126.259C45.4967 126.259 44.4807 126.043 43.6967 125.611C42.9287 125.163 42.3607 124.619 41.9927 123.979C41.6247 123.323 41.4407 122.675 41.4407 122.035C41.4407 121.619 41.5287 121.339 41.7047 121.195C41.8967 121.035 42.2087 120.955 42.6407 120.955C43.1527 120.955 43.4967 121.035 43.6727 121.195C43.8647 121.355 43.9607 121.587 43.9607 121.891C43.9607 122.435 44.1847 122.923 44.6327 123.355C45.0967 123.787 45.8087 124.003 46.7687 124.003C47.7607 124.003 48.4887 123.771 48.9527 123.307C49.4327 122.827 49.6727 122.067 49.6727 121.027V120.571C49.6727 119.611 49.4007 118.939 48.8567 118.555C48.3287 118.155 47.6327 117.955 46.7687 117.955C46.4647 117.955 46.2487 117.851 46.1207 117.643C45.9927 117.435 45.9287 117.203 45.9287 116.947C45.9287 116.691 45.9927 116.459 46.1207 116.251C46.2487 116.027 46.4567 115.915 46.7447 115.915C47.2407 115.915 47.6727 115.851 48.0407 115.723C48.4247 115.579 48.7207 115.323 48.9287 114.955C49.1367 114.571 49.2407 114.011 49.2407 113.275C49.2407 112.395 49.0327 111.763 48.6167 111.379C48.2167 110.995 47.6247 110.803 46.8407 110.803C45.8807 110.803 45.2247 111.011 44.8727 111.427C44.5207 111.827 44.3447 112.275 44.3447 112.771C44.3447 113.091 44.2567 113.347 44.0807 113.539C43.9207 113.715 43.6087 113.803 43.1447 113.803C42.5847 113.803 42.2247 113.723 42.0647 113.563C41.9047 113.387 41.8247 113.075 41.8247 112.627C41.8247 112.243 41.9047 111.819 42.0647 111.355C42.2247 110.875 42.4887 110.427 42.8567 110.011C43.2407 109.595 43.7607 109.251 44.4167 108.979C45.0727 108.707 45.8887 108.571 46.8647 108.571C47.8087 108.571 48.6407 108.707 49.3607 108.979C50.0807 109.251 50.6487 109.699 51.0647 110.323C51.4807 110.947 51.6887 111.787 51.6887 112.843C51.6887 113.835 51.5127 114.683 51.1607 115.387C50.8087 116.091 50.3447 116.579 49.7687 116.851C50.4887 117.123 51.0727 117.555 51.5207 118.147C51.9847 118.739 52.2167 119.547 52.2167 120.571V121.027C52.2167 122.291 51.9687 123.307 51.4727 124.075C50.9927 124.843 50.3367 125.403 49.5047 125.755C48.6727 126.091 47.7527 126.259 46.7447 126.259ZM61.1876 126.115C60.8676 126.115 60.5716 126.043 60.2996 125.899C60.0436 125.755 59.9156 125.539 59.9156 125.251V122.179H54.0356C53.7796 122.179 53.5636 122.099 53.3876 121.939C53.2276 121.763 53.1476 121.531 53.1476 121.243C53.1476 121.051 53.1956 120.867 53.2916 120.691L59.0756 109.267C59.2196 109.011 59.3876 108.835 59.5796 108.739C59.7876 108.627 59.9956 108.571 60.2036 108.571C60.4276 108.571 60.6916 108.667 60.9956 108.859C61.2996 109.035 61.4516 109.267 61.4516 109.555C61.4516 109.651 61.4196 109.779 61.3556 109.939L56.4116 119.803H59.9156V116.491C59.9156 116.187 60.0436 115.971 60.2996 115.843C60.5716 115.715 60.8676 115.651 61.1876 115.651C61.5076 115.651 61.7956 115.715 62.0516 115.843C62.3236 115.971 62.4596 116.187 62.4596 116.491V119.803H63.6596C63.9476 119.803 64.1636 119.931 64.3076 120.187C64.4516 120.427 64.5236 120.691 64.5236 120.979C64.5236 121.283 64.4356 121.563 64.2596 121.819C64.0836 122.059 63.8836 122.179 63.6596 122.179H62.4596V125.251C62.4596 125.539 62.3236 125.755 62.0516 125.899C61.7956 126.043 61.5076 126.115 61.1876 126.115ZM75.3395 126.259C74.1875 126.259 73.2035 126.059 72.3875 125.659C71.5875 125.259 70.9795 124.739 70.5635 124.099C70.1475 123.443 69.9395 122.747 69.9395 122.011C69.9395 121.563 70.0515 121.259 70.2755 121.099C70.4995 120.923 70.8115 120.835 71.2115 120.835C71.7235 120.835 72.0595 120.931 72.2195 121.123C72.3955 121.315 72.4835 121.547 72.4835 121.819C72.4835 122.523 72.7555 123.067 73.2995 123.451C73.8435 123.819 74.5075 124.003 75.2915 124.003C76.1875 124.003 76.8915 123.763 77.4035 123.283C77.9155 122.787 78.1715 122.019 78.1715 120.979V120.523C78.1715 119.499 77.9155 118.739 77.4035 118.243C76.8915 117.747 76.2035 117.499 75.3395 117.499H71.8595C71.4275 117.499 71.1315 117.411 70.9715 117.235C70.8275 117.059 70.7555 116.819 70.7555 116.515C70.7555 116.419 70.7555 116.331 70.7555 116.251C70.7715 116.155 70.7875 116.051 70.8035 115.939L71.3555 109.411C71.4035 108.851 71.5955 108.571 71.9315 108.571H79.0595C79.3155 108.571 79.5075 108.691 79.6355 108.931C79.7795 109.155 79.8515 109.411 79.8515 109.699C79.8515 109.987 79.7795 110.251 79.6355 110.491C79.5075 110.715 79.3155 110.827 79.0595 110.827H73.5155L73.1795 115.459H75.3395C76.3475 115.459 77.2515 115.627 78.0515 115.963C78.8675 116.299 79.5155 116.835 79.9955 117.571C80.4755 118.307 80.7155 119.291 80.7155 120.523V120.979C80.7155 122.259 80.4755 123.291 79.9955 124.075C79.5155 124.843 78.8675 125.403 78.0515 125.755C77.2355 126.091 76.3315 126.259 75.3395 126.259ZM87.9184 126.259C86.9104 126.259 85.9984 126.083 85.1824 125.731C84.3664 125.379 83.7184 124.811 83.2384 124.027C82.7584 123.243 82.5184 122.195 82.5184 120.883V113.923C82.5184 112.627 82.7584 111.587 83.2384 110.803C83.7344 110.019 84.3984 109.451 85.2304 109.099C86.0624 108.747 86.9984 108.571 88.0384 108.571C89.2384 108.571 90.2224 108.787 90.9904 109.219C91.7744 109.651 92.3504 110.195 92.7184 110.851C93.1024 111.507 93.2944 112.171 93.2944 112.843C93.2944 113.259 93.1904 113.547 92.9824 113.707C92.7904 113.851 92.5024 113.923 92.1184 113.923C91.7664 113.923 91.4544 113.859 91.1824 113.731C90.9104 113.603 90.7744 113.347 90.7744 112.963C90.7744 112.291 90.4944 111.771 89.9344 111.403C89.3904 111.019 88.7344 110.827 87.9664 110.827C87.0544 110.827 86.3424 111.083 85.8304 111.595C85.3184 112.091 85.0624 112.867 85.0624 113.923V116.923C85.4624 116.443 85.9504 116.099 86.5264 115.891C87.1024 115.683 87.7264 115.579 88.3984 115.579C89.3104 115.579 90.1344 115.731 90.8704 116.035C91.6064 116.323 92.1904 116.827 92.6224 117.547C93.0704 118.251 93.2944 119.227 93.2944 120.475V120.883C93.2944 122.195 93.0544 123.243 92.5744 124.027C92.1104 124.811 91.4704 125.379 90.6544 125.731C89.8384 126.083 88.9264 126.259 87.9184 126.259ZM87.9184 124.123C88.8144 124.123 89.5104 123.875 90.0064 123.379C90.5024 122.883 90.7504 122.107 90.7504 121.051V120.643C90.7504 119.539 90.5024 118.763 90.0064 118.315C89.5104 117.851 88.8064 117.619 87.8944 117.619C87.0304 117.619 86.3424 117.835 85.8304 118.267C85.3184 118.683 85.0624 119.403 85.0624 120.427V121.051C85.0624 122.107 85.3104 122.883 85.8064 123.379C86.3184 123.875 87.0224 124.123 87.9184 124.123ZM97.8324 126.187C97.4324 126.187 97.0644 126.075 96.7284 125.851C96.4084 125.611 96.2484 125.307 96.2484 124.939C96.2484 124.779 96.2884 124.619 96.3684 124.459L102.968 112.315V110.827H97.2804V113.083C97.2804 113.323 97.1444 113.523 96.8724 113.683C96.6164 113.843 96.3204 113.923 95.9844 113.923C95.6484 113.923 95.3524 113.843 95.0964 113.683C94.8564 113.523 94.7364 113.323 94.7364 113.083V109.411C94.7364 109.203 94.8484 109.011 95.0724 108.835C95.3124 108.659 95.5764 108.571 95.8644 108.571H104.384C104.64 108.571 104.888 108.659 105.128 108.835C105.384 109.011 105.512 109.203 105.512 109.411V111.883C105.512 112.091 105.464 112.323 105.368 112.579C105.272 112.835 105.168 113.075 105.056 113.299L98.6004 125.803C98.4564 126.059 98.2004 126.187 97.8324 126.187ZM112.098 126.259C111.09 126.259 110.178 126.099 109.362 125.779C108.546 125.443 107.898 124.915 107.418 124.195C106.938 123.459 106.698 122.499 106.698 121.315V121.027C106.698 119.795 106.954 118.819 107.466 118.099C107.978 117.363 108.65 116.843 109.482 116.539C108.81 116.283 108.266 115.851 107.85 115.243C107.45 114.635 107.25 113.819 107.25 112.795C107.25 111.771 107.458 110.955 107.874 110.347C108.29 109.723 108.866 109.275 109.602 109.003C110.338 108.715 111.17 108.571 112.098 108.571C113.042 108.571 113.874 108.715 114.594 109.003C115.33 109.275 115.906 109.723 116.322 110.347C116.754 110.955 116.97 111.771 116.97 112.795C116.97 113.819 116.762 114.635 116.346 115.243C115.946 115.851 115.41 116.283 114.738 116.539C115.57 116.843 116.234 117.363 116.73 118.099C117.242 118.819 117.498 119.795 117.498 121.027V121.315C117.498 122.499 117.258 123.459 116.778 124.195C116.298 124.915 115.65 125.443 114.834 125.779C114.018 126.099 113.106 126.259 112.098 126.259ZM112.122 124.147C113.018 124.147 113.714 123.891 114.21 123.379C114.706 122.867 114.954 122.091 114.954 121.051V120.619C114.954 119.595 114.698 118.843 114.186 118.363C113.69 117.867 112.994 117.619 112.098 117.619C111.218 117.619 110.522 117.867 110.01 118.363C109.498 118.843 109.242 119.595 109.242 120.619V121.051C109.242 122.107 109.498 122.891 110.01 123.403C110.522 123.899 111.226 124.147 112.122 124.147ZM112.098 115.507C112.866 115.507 113.458 115.323 113.874 114.955C114.306 114.571 114.522 113.947 114.522 113.083C114.522 112.235 114.306 111.627 113.874 111.259C113.458 110.875 112.866 110.683 112.098 110.683C111.346 110.683 110.754 110.875 110.322 111.259C109.906 111.627 109.698 112.235 109.698 113.083C109.698 113.947 109.906 114.571 110.322 114.955C110.754 115.323 111.346 115.507 112.098 115.507ZM129.394 126.259C128.194 126.259 127.202 126.043 126.418 125.611C125.634 125.179 125.05 124.635 124.666 123.979C124.298 123.323 124.114 122.659 124.114 121.987C124.114 121.571 124.21 121.283 124.402 121.123C124.61 120.963 124.914 120.883 125.314 120.883C125.666 120.883 125.97 120.955 126.226 121.099C126.498 121.227 126.634 121.483 126.634 121.867C126.634 122.539 126.906 123.067 127.45 123.451C128.01 123.819 128.682 124.003 129.466 124.003C130.378 124.003 131.09 123.755 131.602 123.259C132.114 122.747 132.37 121.955 132.37 120.883V117.883C131.97 118.379 131.474 118.731 130.882 118.939C130.306 119.147 129.682 119.251 129.01 119.251C128.114 119.251 127.29 119.107 126.538 118.819C125.802 118.515 125.21 118.011 124.762 117.307C124.33 116.587 124.114 115.603 124.114 114.355V113.923C124.114 112.627 124.354 111.587 124.834 110.803C125.314 110.019 125.954 109.451 126.754 109.099C127.57 108.747 128.482 108.571 129.49 108.571C130.514 108.571 131.434 108.747 132.25 109.099C133.066 109.451 133.714 110.019 134.194 110.803C134.674 111.587 134.914 112.627 134.914 113.923V120.883C134.914 122.195 134.666 123.243 134.17 124.027C133.69 124.811 133.034 125.379 132.202 125.731C131.37 126.083 130.434 126.259 129.394 126.259ZM129.514 117.211C130.378 117.211 131.066 117.003 131.578 116.587C132.106 116.155 132.37 115.427 132.37 114.403V113.779C132.37 112.723 132.114 111.947 131.602 111.451C131.09 110.939 130.386 110.683 129.49 110.683C128.61 110.683 127.914 110.939 127.402 111.451C126.906 111.947 126.658 112.723 126.658 113.779V114.187C126.658 115.291 126.906 116.075 127.402 116.539C127.914 116.987 128.618 117.211 129.514 117.211ZM139.764 126.115C139.444 126.115 139.148 126.043 138.876 125.899C138.62 125.755 138.492 125.539 138.492 125.251V111.931L137.652 112.987C137.556 113.067 137.46 113.131 137.364 113.179C137.284 113.211 137.204 113.227 137.124 113.227C136.868 113.227 136.66 113.123 136.5 112.915C136.34 112.691 136.26 112.443 136.26 112.171C136.26 111.771 136.428 111.451 136.764 111.211L139.26 108.811C139.452 108.635 139.668 108.547 139.908 108.547C140.18 108.547 140.436 108.627 140.676 108.787C140.916 108.931 141.036 109.131 141.036 109.387V125.251C141.036 125.539 140.9 125.755 140.628 125.899C140.372 126.043 140.084 126.115 139.764 126.115ZM144.314 126.115C144.09 126.115 143.842 126.043 143.57 125.899C143.314 125.739 143.186 125.523 143.186 125.251V122.923C143.186 122.283 143.378 121.691 143.762 121.147C144.146 120.587 144.634 120.059 145.226 119.563C145.818 119.067 146.45 118.587 147.122 118.123C147.794 117.643 148.426 117.163 149.018 116.683C149.61 116.187 150.098 115.675 150.482 115.147C150.866 114.603 151.058 114.027 151.058 113.419C151.058 113.019 150.962 112.627 150.77 112.243C150.594 111.859 150.314 111.539 149.93 111.283C149.546 111.027 149.05 110.899 148.442 110.899C147.77 110.899 147.194 111.091 146.714 111.475C146.25 111.859 146.018 112.459 146.018 113.275C146.018 113.515 145.898 113.739 145.658 113.947C145.434 114.139 145.114 114.235 144.698 114.235C144.346 114.235 144.066 114.139 143.858 113.947C143.65 113.739 143.546 113.363 143.546 112.819C143.546 111.971 143.77 111.227 144.218 110.587C144.682 109.947 145.282 109.451 146.018 109.099C146.77 108.747 147.586 108.571 148.466 108.571C149.378 108.571 150.226 108.771 151.01 109.171C151.794 109.571 152.418 110.131 152.882 110.851C153.362 111.555 153.602 112.387 153.602 113.347C153.602 114.211 153.41 114.987 153.026 115.675C152.658 116.347 152.178 116.963 151.586 117.523C150.994 118.083 150.362 118.595 149.69 119.059C149.034 119.523 148.41 119.963 147.818 120.379C147.242 120.795 146.762 121.211 146.378 121.627C146.01 122.043 145.826 122.475 145.826 122.923V123.859H152.858C153.082 123.859 153.274 123.971 153.434 124.195C153.61 124.403 153.698 124.659 153.698 124.963C153.698 125.267 153.61 125.539 153.434 125.779C153.274 126.003 153.082 126.115 152.858 126.115H144.314ZM160.206 126.259C158.958 126.259 157.942 126.043 157.158 125.611C156.39 125.163 155.822 124.619 155.454 123.979C155.086 123.323 154.902 122.675 154.902 122.035C154.902 121.619 154.99 121.339 155.166 121.195C155.358 121.035 155.67 120.955 156.102 120.955C156.614 120.955 156.958 121.035 157.134 121.195C157.326 121.355 157.422 121.587 157.422 121.891C157.422 122.435 157.646 122.923 158.094 123.355C158.558 123.787 159.27 124.003 160.23 124.003C161.222 124.003 161.95 123.771 162.414 123.307C162.894 122.827 163.134 122.067 163.134 121.027V120.571C163.134 119.611 162.862 118.939 162.318 118.555C161.79 118.155 161.094 117.955 160.23 117.955C159.926 117.955 159.71 117.851 159.582 117.643C159.454 117.435 159.39 117.203 159.39 116.947C159.39 116.691 159.454 116.459 159.582 116.251C159.71 116.027 159.918 115.915 160.206 115.915C160.702 115.915 161.134 115.851 161.502 115.723C161.886 115.579 162.182 115.323 162.39 114.955C162.598 114.571 162.702 114.011 162.702 113.275C162.702 112.395 162.494 111.763 162.078 111.379C161.678 110.995 161.086 110.803 160.302 110.803C159.342 110.803 158.686 111.011 158.334 111.427C157.982 111.827 157.806 112.275 157.806 112.771C157.806 113.091 157.718 113.347 157.542 113.539C157.382 113.715 157.07 113.803 156.606 113.803C156.046 113.803 155.686 113.723 155.526 113.563C155.366 113.387 155.286 113.075 155.286 112.627C155.286 112.243 155.366 111.819 155.526 111.355C155.686 110.875 155.95 110.427 156.318 110.011C156.702 109.595 157.222 109.251 157.878 108.979C158.534 108.707 159.35 108.571 160.326 108.571C161.27 108.571 162.102 108.707 162.822 108.979C163.542 109.251 164.11 109.699 164.526 110.323C164.942 110.947 165.15 111.787 165.15 112.843C165.15 113.835 164.974 114.683 164.622 115.387C164.27 116.091 163.806 116.579 163.23 116.851C163.95 117.123 164.534 117.555 164.982 118.147C165.446 118.739 165.678 119.547 165.678 120.571V121.027C165.678 122.291 165.43 123.307 164.934 124.075C164.454 124.843 163.798 125.403 162.966 125.755C162.134 126.091 161.214 126.259 160.206 126.259ZM179.453 126.115C179.133 126.115 178.837 126.043 178.565 125.899C178.309 125.755 178.181 125.539 178.181 125.251V122.179H172.301C172.045 122.179 171.829 122.099 171.653 121.939C171.493 121.763 171.413 121.531 171.413 121.243C171.413 121.051 171.461 120.867 171.557 120.691L177.341 109.267C177.485 109.011 177.653 108.835 177.845 108.739C178.053 108.627 178.261 108.571 178.469 108.571C178.693 108.571 178.957 108.667 179.261 108.859C179.565 109.035 179.717 109.267 179.717 109.555C179.717 109.651 179.685 109.779 179.621 109.939L174.677 119.803H178.181V116.491C178.181 116.187 178.309 115.971 178.565 115.843C178.837 115.715 179.133 115.651 179.453 115.651C179.773 115.651 180.061 115.715 180.317 115.843C180.589 115.971 180.725 116.187 180.725 116.491V119.803H181.925C182.213 119.803 182.429 119.931 182.573 120.187C182.717 120.427 182.789 120.691 182.789 120.979C182.789 121.283 182.701 121.563 182.525 121.819C182.349 122.059 182.149 122.179 181.925 122.179H180.725V125.251C180.725 125.539 180.589 125.755 180.317 125.899C180.061 126.043 179.773 126.115 179.453 126.115ZM188.918 126.259C187.766 126.259 186.782 126.059 185.966 125.659C185.166 125.259 184.558 124.739 184.142 124.099C183.726 123.443 183.518 122.747 183.518 122.011C183.518 121.563 183.63 121.259 183.854 121.099C184.078 120.923 184.39 120.835 184.79 120.835C185.302 120.835 185.638 120.931 185.798 121.123C185.974 121.315 186.062 121.547 186.062 121.819C186.062 122.523 186.334 123.067 186.878 123.451C187.422 123.819 188.086 124.003 188.87 124.003C189.766 124.003 190.47 123.763 190.982 123.283C191.494 122.787 191.75 122.019 191.75 120.979V120.523C191.75 119.499 191.494 118.739 190.982 118.243C190.47 117.747 189.782 117.499 188.918 117.499H185.438C185.006 117.499 184.71 117.411 184.55 117.235C184.406 117.059 184.334 116.819 184.334 116.515C184.334 116.419 184.334 116.331 184.334 116.251C184.35 116.155 184.366 116.051 184.382 115.939L184.934 109.411C184.982 108.851 185.174 108.571 185.51 108.571H192.638C192.894 108.571 193.086 108.691 193.214 108.931C193.358 109.155 193.43 109.411 193.43 109.699C193.43 109.987 193.358 110.251 193.214 110.491C193.086 110.715 192.894 110.827 192.638 110.827H187.094L186.758 115.459H188.918C189.926 115.459 190.83 115.627 191.63 115.963C192.446 116.299 193.094 116.835 193.574 117.571C194.054 118.307 194.294 119.291 194.294 120.523V120.979C194.294 122.259 194.054 123.291 193.574 124.075C193.094 124.843 192.446 125.403 191.63 125.755C190.814 126.091 189.91 126.259 188.918 126.259ZM201.496 126.259C200.488 126.259 199.576 126.083 198.76 125.731C197.944 125.379 197.296 124.811 196.816 124.027C196.336 123.243 196.096 122.195 196.096 120.883V113.923C196.096 112.627 196.336 111.587 196.816 110.803C197.312 110.019 197.976 109.451 198.808 109.099C199.64 108.747 200.576 108.571 201.616 108.571C202.816 108.571 203.8 108.787 204.568 109.219C205.352 109.651 205.928 110.195 206.296 110.851C206.68 111.507 206.872 112.171 206.872 112.843C206.872 113.259 206.768 113.547 206.56 113.707C206.368 113.851 206.08 113.923 205.696 113.923C205.344 113.923 205.032 113.859 204.76 113.731C204.488 113.603 204.352 113.347 204.352 112.963C204.352 112.291 204.072 111.771 203.512 111.403C202.968 111.019 202.312 110.827 201.544 110.827C200.632 110.827 199.92 111.083 199.408 111.595C198.896 112.091 198.64 112.867 198.64 113.923V116.923C199.04 116.443 199.528 116.099 200.104 115.891C200.68 115.683 201.304 115.579 201.976 115.579C202.888 115.579 203.712 115.731 204.448 116.035C205.184 116.323 205.768 116.827 206.2 117.547C206.648 118.251 206.872 119.227 206.872 120.475V120.883C206.872 122.195 206.632 123.243 206.152 124.027C205.688 124.811 205.048 125.379 204.232 125.731C203.416 126.083 202.504 126.259 201.496 126.259ZM201.496 124.123C202.392 124.123 203.088 123.875 203.584 123.379C204.08 122.883 204.328 122.107 204.328 121.051V120.643C204.328 119.539 204.08 118.763 203.584 118.315C203.088 117.851 202.384 117.619 201.472 117.619C200.608 117.619 199.92 117.835 199.408 118.267C198.896 118.683 198.64 119.403 198.64 120.427V121.051C198.64 122.107 198.888 122.883 199.384 123.379C199.896 123.875 200.6 124.123 201.496 124.123ZM211.411 126.187C211.011 126.187 210.643 126.075 210.307 125.851C209.987 125.611 209.827 125.307 209.827 124.939C209.827 124.779 209.867 124.619 209.947 124.459L216.547 112.315V110.827H210.859V113.083C210.859 113.323 210.723 113.523 210.451 113.683C210.195 113.843 209.899 113.923 209.563 113.923C209.227 113.923 208.931 113.843 208.675 113.683C208.435 113.523 208.315 113.323 208.315 113.083V109.411C208.315 109.203 208.427 109.011 208.651 108.835C208.891 108.659 209.155 108.571 209.443 108.571H217.963C218.219 108.571 218.467 108.659 218.707 108.835C218.963 109.011 219.091 109.203 219.091 109.411V111.883C219.091 112.091 219.043 112.323 218.947 112.579C218.851 112.835 218.747 113.075 218.635 113.299L212.179 125.803C212.035 126.059 211.779 126.187 211.411 126.187Z" fill="white"/>
<path d="M28.4389 169.259C27.3669 169.259 26.4149 169.075 25.5829 168.707C24.7669 168.323 24.1269 167.787 23.6629 167.099C23.1989 166.411 22.9669 165.603 22.9669 164.675C22.9669 164.195 23.0709 163.875 23.2789 163.715C23.5029 163.539 23.8309 163.451 24.2629 163.451C24.5829 163.451 24.8629 163.515 25.1029 163.643C25.3589 163.755 25.4949 163.971 25.5109 164.291C25.5429 165.011 25.7749 165.643 26.2069 166.187C26.6389 166.731 27.3509 167.003 28.3429 167.003C29.2549 167.003 29.9589 166.747 30.4549 166.235C30.9669 165.723 31.2229 164.939 31.2229 163.883V153.827H28.4149C28.1429 153.827 27.9349 153.715 27.7909 153.491C27.6469 153.251 27.5749 152.979 27.5749 152.675C27.5749 152.419 27.6389 152.171 27.7669 151.931C27.8949 151.691 28.1109 151.571 28.4149 151.571H32.6389C32.9109 151.571 33.1669 151.643 33.4069 151.787C33.6469 151.931 33.7669 152.139 33.7669 152.411V163.883C33.7669 165.195 33.5269 166.243 33.0469 167.027C32.5669 167.811 31.9269 168.379 31.1269 168.731C30.3269 169.083 29.4309 169.259 28.4389 169.259ZM42.0557 169.259C41.0477 169.259 40.1357 169.083 39.3197 168.731C38.5037 168.379 37.8557 167.811 37.3757 167.027C36.9117 166.243 36.6797 165.195 36.6797 163.883V156.923C36.6797 155.627 36.9117 154.587 37.3757 153.803C37.8557 153.019 38.5037 152.451 39.3197 152.099C40.1357 151.747 41.0477 151.571 42.0557 151.571C43.0637 151.571 43.9757 151.747 44.7917 152.099C45.6077 152.451 46.2557 153.019 46.7357 153.803C47.2157 154.587 47.4557 155.627 47.4557 156.923V163.883C47.4557 165.195 47.2157 166.243 46.7357 167.027C46.2557 167.811 45.6077 168.379 44.7917 168.731C43.9757 169.083 43.0637 169.259 42.0557 169.259ZM42.0557 167.003C42.9357 167.003 43.6317 166.755 44.1437 166.259C44.6557 165.747 44.9117 164.955 44.9117 163.883V156.923C44.9117 155.867 44.6557 155.091 44.1437 154.595C43.6317 154.083 42.9357 153.827 42.0557 153.827C41.1597 153.827 40.4637 154.083 39.9677 154.595C39.4717 155.091 39.2237 155.867 39.2237 156.923V163.883C39.2237 164.955 39.4717 165.747 39.9677 166.259C40.4637 166.755 41.1597 167.003 42.0557 167.003ZM51.7134 169.115C51.3934 169.115 51.0974 169.043 50.8254 168.899C50.5694 168.755 50.4414 168.539 50.4414 168.251V152.387C50.4414 152.099 50.5694 151.891 50.8254 151.763C51.0974 151.635 51.3934 151.571 51.7134 151.571C52.0334 151.571 52.3214 151.635 52.5774 151.763C52.8494 151.891 52.9854 152.099 52.9854 152.387V158.987H58.9614V152.387C58.9614 152.099 59.0894 151.891 59.3454 151.763C59.6174 151.635 59.9134 151.571 60.2334 151.571C60.5534 151.571 60.8414 151.635 61.0974 151.763C61.3694 151.891 61.5054 152.099 61.5054 152.387V168.251C61.5054 168.539 61.3694 168.755 61.0974 168.899C60.8414 169.043 60.5534 169.115 60.2334 169.115C59.9134 169.115 59.6174 169.043 59.3454 168.899C59.0894 168.755 58.9614 168.539 58.9614 168.251V161.027H52.9854V168.251C52.9854 168.539 52.8494 168.755 52.5774 168.899C52.3214 169.043 52.0334 169.115 51.7134 169.115ZM65.94 169.115C65.62 169.115 65.324 169.043 65.052 168.899C64.796 168.755 64.668 168.539 64.668 168.251V152.411C64.668 152.123 64.796 151.915 65.052 151.787C65.324 151.643 65.62 151.571 65.94 151.571C66.404 151.571 66.764 151.675 67.02 151.883C67.292 152.091 67.572 152.467 67.86 153.011L73.188 163.403V152.387C73.188 152.099 73.316 151.891 73.572 151.763C73.844 151.635 74.14 151.571 74.46 151.571C74.78 151.571 75.068 151.635 75.324 151.763C75.596 151.891 75.732 152.099 75.732 152.387V168.251C75.732 168.539 75.596 168.755 75.324 168.899C75.068 169.043 74.78 169.115 74.46 169.115C73.788 169.115 73.284 168.795 72.948 168.155L67.212 157.259V168.251C67.212 168.539 67.076 168.755 66.804 168.899C66.548 169.043 66.26 169.115 65.94 169.115ZM84.8272 169.115C84.4912 169.115 84.2192 169.035 84.0112 168.875C83.8032 168.699 83.6992 168.499 83.6992 168.275V152.387C83.6992 152.179 83.8032 151.995 84.0112 151.835C84.2192 151.659 84.4912 151.571 84.8272 151.571H89.0752C90.0832 151.571 90.9952 151.747 91.8112 152.099C92.6272 152.451 93.2752 153.019 93.7552 153.803C94.2352 154.587 94.4752 155.627 94.4752 156.923V163.739C94.4752 165.051 94.2352 166.099 93.7552 166.883C93.2752 167.667 92.6272 168.235 91.8112 168.587C90.9952 168.939 90.0832 169.115 89.0752 169.115H84.8272ZM86.2432 166.859H89.0752C89.9712 166.859 90.6672 166.603 91.1632 166.091C91.6752 165.579 91.9312 164.795 91.9312 163.739V156.923C91.9312 155.867 91.6752 155.091 91.1632 154.595C90.6672 154.083 89.9712 153.827 89.0752 153.827H86.2432V166.859ZM102.665 169.259C101.657 169.259 100.745 169.083 99.929 168.731C99.113 168.379 98.465 167.811 97.985 167.027C97.521 166.243 97.289 165.195 97.289 163.883V156.923C97.289 155.627 97.521 154.587 97.985 153.803C98.465 153.019 99.113 152.451 99.929 152.099C100.745 151.747 101.657 151.571 102.665 151.571C103.673 151.571 104.585 151.747 105.401 152.099C106.217 152.451 106.865 153.019 107.345 153.803C107.825 154.587 108.065 155.627 108.065 156.923V163.883C108.065 165.195 107.825 166.243 107.345 167.027C106.865 167.811 106.217 168.379 105.401 168.731C104.585 169.083 103.673 169.259 102.665 169.259ZM102.665 167.003C103.545 167.003 104.241 166.755 104.753 166.259C105.265 165.747 105.521 164.955 105.521 163.883V156.923C105.521 155.867 105.265 155.091 104.753 154.595C104.241 154.083 103.545 153.827 102.665 153.827C101.769 153.827 101.073 154.083 100.577 154.595C100.081 155.091 99.833 155.867 99.833 156.923V163.883C99.833 164.955 100.081 165.747 100.577 166.259C101.073 166.755 101.769 167.003 102.665 167.003ZM112.179 169.115C111.907 169.115 111.651 169.043 111.411 168.899C111.171 168.755 111.051 168.539 111.051 168.251V152.411C111.051 152.139 111.171 151.931 111.411 151.787C111.651 151.643 111.907 151.571 112.179 151.571H120.723C121.011 151.571 121.219 151.691 121.347 151.931C121.491 152.171 121.563 152.419 121.563 152.675C121.563 152.979 121.491 153.251 121.347 153.491C121.203 153.715 120.995 153.827 120.723 153.827H113.595V159.299H117.291C117.563 159.299 117.771 159.411 117.915 159.635C118.059 159.843 118.131 160.083 118.131 160.355C118.131 160.579 118.059 160.803 117.915 161.027C117.787 161.235 117.579 161.339 117.291 161.339H113.595V166.859H120.723C120.995 166.859 121.203 166.979 121.347 167.219C121.491 167.443 121.563 167.707 121.563 168.011C121.563 168.267 121.491 168.515 121.347 168.755C121.219 168.995 121.011 169.115 120.723 169.115H112.179Z" fill="white"/>
<path d="M260.207 169.259C259.199 169.259 258.287 169.083 257.471 168.731C256.655 168.379 256.007 167.811 255.527 167.027C255.063 166.243 254.831 165.195 254.831 163.883V156.923C254.831 155.627 255.063 154.587 255.527 153.803C256.007 153.019 256.655 152.451 257.471 152.099C258.287 151.747 259.199 151.571 260.207 151.571C261.215 151.571 262.127 151.747 262.943 152.099C263.759 152.451 264.407 153.019 264.887 153.803C265.367 154.587 265.607 155.627 265.607 156.923V163.883C265.607 165.195 265.367 166.243 264.887 167.027C264.407 167.811 263.759 168.379 262.943 168.731C262.127 169.083 261.215 169.259 260.207 169.259ZM260.207 167.003C261.103 167.003 261.799 166.755 262.295 166.259C262.807 165.747 263.063 164.955 263.063 163.883V156.923C263.063 155.867 262.807 155.091 262.295 154.595C261.799 154.083 261.103 153.827 260.207 153.827C259.311 153.827 258.615 154.083 258.119 154.595C257.623 155.091 257.375 155.867 257.375 156.923V163.883C257.375 164.955 257.623 165.747 258.119 166.259C258.615 166.755 259.311 167.003 260.207 167.003ZM260.231 161.459C259.911 161.459 259.655 161.363 259.463 161.171C259.287 160.963 259.199 160.715 259.199 160.427C259.199 160.123 259.287 159.883 259.463 159.707C259.655 159.515 259.911 159.419 260.231 159.419C260.535 159.419 260.775 159.515 260.951 159.707C261.143 159.883 261.239 160.123 261.239 160.427C261.239 160.715 261.143 160.963 260.951 161.171C260.775 161.363 260.535 161.459 260.231 161.459ZM273.379 169.259C272.371 169.259 271.459 169.083 270.643 168.731C269.827 168.379 269.179 167.811 268.699 167.027C268.235 166.243 268.003 165.195 268.003 163.883V156.923C268.003 155.627 268.235 154.587 268.699 153.803C269.179 153.019 269.827 152.451 270.643 152.099C271.459 151.747 272.371 151.571 273.379 151.571C274.387 151.571 275.299 151.747 276.115 152.099C276.931 152.451 277.579 153.019 278.059 153.803C278.539 154.587 278.779 155.627 278.779 156.923V163.883C278.779 165.195 278.539 166.243 278.059 167.027C277.579 167.811 276.931 168.379 276.115 168.731C275.299 169.083 274.387 169.259 273.379 169.259ZM273.379 167.003C274.275 167.003 274.971 166.755 275.467 166.259C275.979 165.747 276.235 164.955 276.235 163.883V156.923C276.235 155.867 275.979 155.091 275.467 154.595C274.971 154.083 274.275 153.827 273.379 153.827C272.483 153.827 271.787 154.083 271.291 154.595C270.795 155.091 270.547 155.867 270.547 156.923V163.883C270.547 164.955 270.795 165.747 271.291 166.259C271.787 166.755 272.483 167.003 273.379 167.003ZM273.403 161.459C273.083 161.459 272.827 161.363 272.635 161.171C272.459 160.963 272.371 160.715 272.371 160.427C272.371 160.123 272.459 159.883 272.635 159.707C272.827 159.515 273.083 159.419 273.403 159.419C273.707 159.419 273.947 159.515 274.123 159.707C274.315 159.883 274.411 160.123 274.411 160.427C274.411 160.715 274.315 160.963 274.123 161.171C273.947 161.363 273.707 161.459 273.403 161.459ZM281.062 169.955C280.79 169.955 280.566 169.859 280.39 169.667C280.214 169.491 280.126 169.291 280.126 169.067C280.126 168.939 280.158 168.819 280.222 168.707L289.054 151.067C289.182 150.779 289.414 150.635 289.75 150.635C289.99 150.635 290.214 150.723 290.422 150.899C290.646 151.059 290.758 151.275 290.758 151.547C290.758 151.691 290.734 151.819 290.686 151.931L281.878 169.499C281.734 169.803 281.462 169.955 281.062 169.955ZM297.426 169.259C296.418 169.259 295.506 169.083 294.69 168.731C293.874 168.379 293.226 167.811 292.746 167.027C292.282 166.243 292.05 165.195 292.05 163.883V156.923C292.05 155.627 292.282 154.587 292.746 153.803C293.226 153.019 293.874 152.451 294.69 152.099C295.506 151.747 296.418 151.571 297.426 151.571C298.434 151.571 299.346 151.747 300.162 152.099C300.978 152.451 301.626 153.019 302.106 153.803C302.586 154.587 302.826 155.627 302.826 156.923V163.883C302.826 165.195 302.586 166.243 302.106 167.027C301.626 167.811 300.978 168.379 300.162 168.731C299.346 169.083 298.434 169.259 297.426 169.259ZM297.426 167.003C298.322 167.003 299.018 166.755 299.514 166.259C300.026 165.747 300.282 164.955 300.282 163.883V156.923C300.282 155.867 300.026 155.091 299.514 154.595C299.018 154.083 298.322 153.827 297.426 153.827C296.53 153.827 295.834 154.083 295.338 154.595C294.842 155.091 294.594 155.867 294.594 156.923V163.883C294.594 164.955 294.842 165.747 295.338 166.259C295.834 166.755 296.53 167.003 297.426 167.003ZM297.45 161.459C297.13 161.459 296.874 161.363 296.682 161.171C296.506 160.963 296.418 160.715 296.418 160.427C296.418 160.123 296.506 159.883 296.682 159.707C296.874 159.515 297.13 159.419 297.45 159.419C297.754 159.419 297.994 159.515 298.17 159.707C298.362 159.883 298.458 160.123 298.458 160.427C298.458 160.715 298.362 160.963 298.17 161.171C297.994 161.363 297.754 161.459 297.45 161.459ZM310.597 169.259C309.589 169.259 308.677 169.083 307.861 168.731C307.045 168.379 306.397 167.811 305.917 167.027C305.453 166.243 305.221 165.195 305.221 163.883V156.923C305.221 155.627 305.453 154.587 305.917 153.803C306.397 153.019 307.045 152.451 307.861 152.099C308.677 151.747 309.589 151.571 310.597 151.571C311.605 151.571 312.517 151.747 313.333 152.099C314.149 152.451 314.797 153.019 315.277 153.803C315.757 154.587 315.997 155.627 315.997 156.923V163.883C315.997 165.195 315.757 166.243 315.277 167.027C314.797 167.811 314.149 168.379 313.333 168.731C312.517 169.083 311.605 169.259 310.597 169.259ZM310.597 167.003C311.493 167.003 312.189 166.755 312.685 166.259C313.197 165.747 313.453 164.955 313.453 163.883V156.923C313.453 155.867 313.197 155.091 312.685 154.595C312.189 154.083 311.493 153.827 310.597 153.827C309.701 153.827 309.005 154.083 308.509 154.595C308.013 155.091 307.765 155.867 307.765 156.923V163.883C307.765 164.955 308.013 165.747 308.509 166.259C309.005 166.755 309.701 167.003 310.597 167.003ZM310.621 161.459C310.301 161.459 310.045 161.363 309.853 161.171C309.677 160.963 309.589 160.715 309.589 160.427C309.589 160.123 309.677 159.883 309.853 159.707C310.045 159.515 310.301 159.419 310.621 159.419C310.925 159.419 311.165 159.515 311.341 159.707C311.533 159.883 311.629 160.123 311.629 160.427C311.629 160.715 311.533 160.963 311.341 161.171C311.165 161.363 310.925 161.459 310.621 161.459Z" fill="white"/>
<defs>
<linearGradient id="paint0_linear_37_379" x1="170.464" y1="0.531738" x2="170.464" y2="198.532" gradientUnits="userSpaceOnUse">
<stop stop-color="#ACACAC"/>
<stop offset="1" stop-color="#4F4F4F"/>
</linearGradient>
<linearGradient id="paint1_linear_37_379" x1="170.464" y1="0.531738" x2="170.464" y2="198.532" gradientUnits="userSpaceOnUse">
<stop stop-color="#9A9A9A"/>
<stop offset="1" stop-color="#5A5A5A"/>
</linearGradient>
<linearGradient id="paint2_linear_37_379" x1="46.9639" y1="22.1985" x2="46.9639" y2="52.1985" gradientUnits="userSpaceOnUse">
<stop stop-color="white"/>
<stop offset="1" stop-color="white" stop-opacity="0"/>
</linearGradient>
</defs>
</svg>
